<svg xmlns="http://www.w3.org/2000/svg" version="1.1" xmlns:xlink="http://www.w3.org/1999/xlink" width="1000" height="1000"><style>
    #light-icon {
      display: inline;
    }
    #dark-icon {
      display: none;
    }

    @media (prefers-color-scheme: dark) {
      #light-icon {
        display: none;
      }
      #dark-icon {
        display: inline;
      }
    }
  </style><g id="light-icon"><svg xmlns="http://www.w3.org/2000/svg" version="1.1" xmlns:xlink="http://www.w3.org/1999/xlink" width="1000" height="1000"><g><g transform="matrix(18.181818181818183,0,0,18.181818181818183,54.545454545454504,-5.684341886080802e-14)"><svg xmlns="http://www.w3.org/2000/svg" version="1.1" xmlns:xlink="http://www.w3.org/1999/xlink" width="49" height="55"><svg width="49" height="55" viewBox="0 0 49 55" fill="none" xmlns="http://www.w3.org/2000/svg">
<path fill-rule="evenodd" clip-rule="evenodd" d="M22.9004 1.5358C24.1379 0.821333 25.6628 0.82147 26.9004 1.5358L46.8018 13.026C48.039 13.7406 48.8017 15.0611 48.8018 16.4899V39.4694L48.792 39.736C48.7035 41.0608 47.9616 42.2634 46.8018 42.9333L26.9004 54.4225C25.6629 55.1369 24.1379 55.1369 22.9004 54.4225L3 42.9333C1.83992 42.2635 1.09725 41.061 1.00879 39.736L1 39.4694V16.4899C1.00001 15.0609 1.76254 13.7406 3 13.026L22.9004 1.5358ZM24.8018 18.3288C19.8312 18.3288 15.8018 22.5821 15.8018 27.8288C15.8019 33.0753 19.8313 37.3288 24.8018 37.3288C29.772 37.3285 33.8016 33.0751 33.8018 27.8288C33.8018 22.5822 29.7721 18.329 24.8018 18.3288Z" fill="#181818"></path>
</svg></svg></g></g></svg></g><g id="dark-icon"><svg xmlns="http://www.w3.org/2000/svg" version="1.1" xmlns:xlink="http://www.w3.org/1999/xlink" width="1000" height="1000"><g><g transform="matrix(18.181818181818183,0,0,18.181818181818183,54.545454545454504,-5.684341886080802e-14)"><svg xmlns="http://www.w3.org/2000/svg" version="1.1" xmlns:xlink="http://www.w3.org/1999/xlink" width="49" height="55"><svg width="49" height="55" viewBox="0 0 49 55" fill="none" xmlns="http://www.w3.org/2000/svg">
<path fill-rule="evenodd" clip-rule="evenodd" d="M22.9004 1.5358C24.1379 0.821333 25.6628 0.82147 26.9004 1.5358L46.8018 13.026C48.039 13.7406 48.8017 15.0611 48.8018 16.4899V39.4694L48.792 39.736C48.7035 41.0608 47.9616 42.2634 46.8018 42.9333L26.9004 54.4225C25.6629 55.1369 24.1379 55.1369 22.9004 54.4225L3 42.9333C1.83992 42.2635 1.09725 41.061 1.00879 39.736L1 39.4694V16.4899C1.00001 15.0609 1.76254 13.7406 3 13.026L22.9004 1.5358ZM24.8018 18.3288C19.8312 18.3288 15.8018 22.5821 15.8018 27.8288C15.8019 33.0753 19.8313 37.3288 24.8018 37.3288C29.772 37.3285 33.8016 33.0751 33.8018 27.8288C33.8018 22.5822 29.7721 18.329 24.8018 18.3288Z" fill="#E5E5E5"></path>
</svg></svg></g></g></svg></g></svg>